<?xml version="1.0" standalone="no"?><!DOCTYPE svg PUBLIC "-//W3C//DTD SVG 1.1//EN" "http://www.w3.org/Graphics/SVG/1.1/DTD/svg11.dtd"><svg t="1533202469848" class="icon" style="" viewBox="0 0 1117 1024" version="1.1" xmlns="http://www.w3.org/2000/svg" p-id="2942" xmlns:xlink="http://www.w3.org/1999/xlink" width="218.1640625" height="200"><defs><style type="text/css"></style></defs><path d="M1095.861201 487.61262c13.032668 12.474125 21.224631 29.230413 21.22463 47.755419 0 38.446371-34.815842 69.724774-77.730555 69.817865h-52.130672V837.819028c0 102.399535-15.639202 186.087881-129.954319 186.087882H259.815546c-114.315117 0-129.954318-83.781437-129.954318-186.180972V605.092813h-50.268863v-0.09309L77.823646 605.092813C34.908932 605.092813 0 573.81441 0 535.274949c0-20.293726 9.867592-38.35328 25.134431-51.199768v-0.18618L501.85081 21.880919l0.279271-0.186181A82.012718 82.012718 0 0 1 558.542916 0.004655l1.303267 0.09309L560.125454 0.004655l0.465452 0.18618c26.344608 0.651633 49.337958 12.753397 62.929169 31.185313h0.279271l472.248036 455.9572-0.186181 0.279272zM558.542916 871.145422c143.824801 0 260.56027-118.038736 260.56027-263.446075S702.367717 344.253272 558.542916 344.253272s-260.56027 118.038736-260.56027 263.446075S414.718115 871.145422 558.542916 871.145422z m118.224917-304.405889a51.292858 51.292858 0 0 1 55.854291 0c16.011564 11.54322 16.011564 29.416594 0.651634 40.494361L553.143668 736.164217a49.244867 49.244867 0 0 1-27.927146 8.564325c-10.239953 0-20.479907-2.792715-27.927146-8.564325l-113.384212-81.174903c-15.35993-11.077768-15.35993-29.044232 0-40.028909a51.292858 51.292858 0 0 1 55.854292 0l84.898523 60.788087 152.202944-108.915869z" p-id="2943"></path></svg>