<?xml version="1.0" standalone="no"?><!DOCTYPE svg PUBLIC "-//W3C//DTD SVG 1.1//EN" "http://www.w3.org/Graphics/SVG/1.1/DTD/svg11.dtd"><svg t="1533202980112" class="icon" style="" viewBox="0 0 1024 1024" version="1.1" xmlns="http://www.w3.org/2000/svg" p-id="4480" xmlns:xlink="http://www.w3.org/1999/xlink" width="200" height="200"><defs><style type="text/css"></style></defs><path d="M920.4277941406249 551.4776764648439a34.130555859375 34.130555859375 0 0 1-67.9198060546875 4.7669009765625L792.5292248046876 130.26111171875004h-562.0164837890625l-56.88425917968751 424.73201132812505c0 0.35268222656250003-0.07963769531249999 0.6939878906249999-0.136522265625 1.0466709960937501a34.130555859375 34.130555859375 0 0 1-33.82338076171875 29.57981484375 34.130555859375 34.130555859375 0 0 1-34.130555859375-34.130555859375 32.99287060546875 32.99287060546875 0 0 1 0.30717509765624995-4.550741015624999L163.66235996093752 115.20953632812501A56.09925703125 56.09925703125 0 0 1 219.61371728515627 62h583.7576475585937a56.09925703125 56.09925703125 0 0 1 55.951358203125004 53.10714462890624l60.706881738281254 431.1826866210937v0.44369736328125a32.8335943359375 32.8335943359375 0 0 1 0.39818935546874995 4.7441478515625zM920.0978659179686 546.7449060546875v-0.44369736328125z" p-id="4481"></path><path d="M294.473403125 196.63366572265625l437.3603173828125 0 0 54.6657732421875-437.3603173828125 0 0-54.6657732421875Z" p-id="4482"></path><path d="M294.473403125 307.5579713867188l437.3603173828125 0 0 54.6657732421875-437.3603173828125 0 0-54.6657732421875Z" p-id="4483"></path><path d="M294.473403125 418.48227705078125l437.3603173828125 0 0 54.665774121093754-437.3603173828125 0 0-54.665774121093754Z" p-id="4484"></path><path d="M294.473403125 524.17323125l437.3603173828125 0 0 54.6657732421875-437.3603173828125 0 0-54.6657732421875Z" p-id="4485"></path><path d="M922.0546838867187 633.9939831054688H101.98844580078128c-15.051575390625 0-23.49319921875 11.638519628906248-18.68079111328125 25.916468554687498l92.03873203124998 276.17307978515623c4.69863984375 14.27794892578125 20.9334076171875 25.916468554687498 35.984982128906246 25.916468554687498h601.3803919921875c15.051575390625 0 31.183951464843748-11.638519628906248 35.984982128906246-25.916468554687498l92.03873203124998-276.11619521484374c4.69863984375-14.334833496093749-3.6292157226562503-25.973353125000003-18.68079111328125-25.973353125000003zM632.5934416015624 767.6378624023438H391.40418095703126a30.808515234375 30.808515234375 0 0 1-30.71750009765625-30.71750009765625 30.808515234375 30.808515234375 0 0 1 30.71750009765625-30.71750009765625h241.18926064453126a30.808515234375 30.808515234375 0 0 1 30.71750009765625 30.71750009765625 30.808515234375 30.808515234375 0 0 1-30.71750009765625 30.71750009765625z" p-id="4486"></path></svg>