<?xml version="1.0" standalone="no"?><!DOCTYPE svg PUBLIC "-//W3C//DTD SVG 1.1//EN" "http://www.w3.org/Graphics/SVG/1.1/DTD/svg11.dtd"><svg t="1533203058289" class="icon" style="" viewBox="0 0 1024 1024" version="1.1" xmlns="http://www.w3.org/2000/svg" p-id="5181" xmlns:xlink="http://www.w3.org/1999/xlink" width="200" height="200"><defs><style type="text/css"></style></defs><path d="M31.7 944c0 44.2 35.8 80 80 80h800c44.2 0 80-35.8 80-80V724c0-44.2-35.8-80-80-80h-346V434c0-27.6-22.4-50-50-50s-50 22.4-50 50v210h-354c-44.2 0-80 35.8-80 80v220z m100-110c0-27.6 22.4-50 50-50s50 22.4 50 50-22.4 50-50 50-50-22.4-50-50z m180 0c0-27.6 22.4-50 50-50s50 22.4 50 50-22.4 50-50 50-50-22.4-50-50z m204-610c-116 0-210 94-210 210 0 27.6 22.4 50 50 50s50-22.4 50-50c0-60.8 49.2-110 110-110s110 49.2 110 110c0 27.6 22.4 50 50 50s50-22.4 50-50c0-116-94-210-210-210z m0-160c-204.4 0-370 165.6-370 370 0 27.6 22.4 50 50 50s50-22.4 50-50c0-149.2 120.8-270 270-270s270 120.8 270 270c0 27.6 22.4 50 50 50s50-22.4 50-50c0-204.4-165.6-370-370-370z" p-id="5182"></path></svg>