<?xml version="1.0" standalone="no"?><!DOCTYPE svg PUBLIC "-//W3C//DTD SVG 1.1//EN" "http://www.w3.org/Graphics/SVG/1.1/DTD/svg11.dtd"><svg t="1533202421155" class="icon" style="" viewBox="0 0 1024 1024" version="1.1" xmlns="http://www.w3.org/2000/svg" p-id="2274" xmlns:xlink="http://www.w3.org/1999/xlink" width="200" height="200"><defs><style type="text/css"></style></defs><path d="M100.8 926.2h411.8V102.5H100.8v823.7z m257.3-720.8h103v103h-103v-103z m0 205.9h103v103h-103v-103z m0 205.9h103v103h-103v-103zM152.2 205.4h103v103h-103v-103z m0 205.9h103v103h-103v-103z m0 205.9h103v103h-103v-103z m411.9-257.3h360.4v51.5H564.1v-51.5z m0 566.3h103v-206h154.5v206h103V462.9H564.1v463.3z" p-id="2275"></path></svg>