<?xml version="1.0" standalone="no"?><!DOCTYPE svg PUBLIC "-//W3C//DTD SVG 1.1//EN" "http://www.w3.org/Graphics/SVG/1.1/DTD/svg11.dtd"><svg t="1533203138212" class="icon" style="" viewBox="0 0 1191 1024" version="1.1" xmlns="http://www.w3.org/2000/svg" p-id="5935" xmlns:xlink="http://www.w3.org/1999/xlink" width="232.6171875" height="200"><defs><style type="text/css"></style></defs><path d="M556.411566 328.218807c-31.874967 54.014066-59.082053 110.695494-76.286533 163.375879-21.605626 65.48372-32.675176 135.501954-22.405835 204.053139 28.007294 188.715811 207.920813 262.868455 350.357905 212.055223v62.549622c0 28.807502-23.606147 52.413649-52.413649 52.413649H231.393592c-28.807502 0-52.413649-23.606147-52.413649-52.413649v-810.877833h188.449075v119.23105l188.982548 49.61292zM421.176348 111.762438H136.035426v-111.362334h285.007554l0.133368 111.362334z m0 0" fill="#333333" p-id="5936"></path><path d="M926.241209 566.147434l-21.738995-21.738994c-6.001563-6.001563-16.671008-5.067986-24.006252 2.133889L716.986715 710.184944c-7.335244 7.201875-8.135452 17.871321-2.133889 24.006252l21.738995 21.738994c6.001563 6.001563 16.671008 4.934618 24.006251-2.267257l163.509248-163.509247c7.068507-7.335244 8.002084-18.004689 2.133889-24.006252z m-173.378484 209.921334l0.800208 0.66684-68.017713 36.009378h137.635843c10.269341 0 18.538161-8.26882 18.538161-18.538161v-105.227403l-84.021881 83.755144c-1.600417 1.200313-3.200834 2.133889-4.934618 3.334202z m-59.482157-51.213337c1.467049-3.600938 3.200834-7.201875 6.268299-10.135973l142.303725-141.636884v-102.826778c0-10.269341-8.26882-18.538161-18.538161-18.538161H564.280281c-10.269341 0-18.538161 8.26882-18.538161 18.538161v323.817661c0 10.269341 8.26882 18.538161 18.538161 18.538161h91.490493l36.676217-88.556395 0.933577 0.800208z m-101.359729-245.263871h194.31727c10.269341 0 18.538161 5.067986 18.538161 11.336286 0 6.401667-8.26882 11.336285-18.538161 11.336285H592.020839c-10.269341 0-18.538161-5.067986-18.538161-11.336285s8.402188-11.336285 18.538161-11.336286z m0 60.949206h194.31727c10.269341 0 18.538161 5.334723 18.538161 12.003126s-8.26882 12.003126-18.538161 12.003125H592.020839c-10.269341 0-18.538161-5.334723-18.538161-12.003125s8.402188-12.003126 18.538161-12.003126z m0 86.955978c-10.269341 0-18.538161-5.601459-18.538161-12.40323 0-6.801771 8.26882-12.40323 18.538161-12.40323h120.297994c10.269341 0 18.538161 5.468091 18.538161 12.40323 0 6.801771-8.26882 12.40323-18.538161 12.40323h-120.297994z m104.69393 108.028132l-34.942432 80.554311 77.753581-39.743683-42.811149-40.810628z m0 0" fill="#333333" p-id="5937"></path></svg>