<?xml version="1.0" standalone="no"?><!DOCTYPE svg PUBLIC "-//W3C//DTD SVG 1.1//EN" "http://www.w3.org/Graphics/SVG/1.1/DTD/svg11.dtd"><svg t="1533202508581" class="icon" style="" viewBox="0 0 1131 1024" version="1.1" xmlns="http://www.w3.org/2000/svg" p-id="3658" xmlns:xlink="http://www.w3.org/1999/xlink" width="220.8984375" height="200"><defs><style type="text/css"></style></defs><path d="M861.507368 551.316211c118.999579 0 215.578947 96.606316 215.578948 215.578947 0 118.999579-96.579368 215.578947-215.578948 215.578947-118.972632 0-215.578947-96.579368-215.578947-215.578947 0-118.972632 96.606316-215.578947 215.578947-215.578947zM196.096 909.204211c-0.242526 0.053895-48.828632 10.617263-48.828632-53.975579v-226.681264l9.754948-10.778947c16.788211-18.539789 285.561263-307.631158 361.202526-389.01221a27.055158 27.055158 0 0 1 39.424-0.053895c47.912421 51.146105 172.975158 184.373895 261.901474 276.722526-130.344421 16.195368-231.343158 127.461053-231.343158 262.170947 0 52.089263 15.090526 100.648421 41.175579 141.608422H196.096z m646.224842-64.997053v57.370947h65.428211v-57.667368h68.284631v-38.346105h-68.069052v-38.480843h68.015157v-38.4h-39.531789c20.641684-18.701474 40.448-46.268632 59.688421-63.730526l-35.624421-32.309895c-27.998316 25.357474-56.346947 60.712421-85.234526 86.905264-28.618105-25.950316-57.209263-61.493895-85.557895-87.201685l-36.055579 32.471579c19.914105 18.027789 39.882105 45.756632 60.146526 64.134737h-38.642526v38.4h66.694737v38.480842h-66.775579v38.373053h67.233684z m84.102737-330.293895L559.184842 158.639158a26.947368 26.947368 0 0 0-37.537684 0.053895C449.455158 228.917895 190.410105 480.902737 131.745684 539.594105c-11.210105 11.210105-29.291789 9.754947-29.291789 9.754948-39.073684-9.754947-68.365474-29.291789-29.318737-68.365474C115.792842 446.868211 441.613474 137.027368 523.371789 59.203368a26.920421 26.920421 0 0 1 37.106527 0c81.731368 77.824 407.552 387.664842 450.209684 421.780211 25.653895 34.196211 13.877895 53.436632-15.629474 64.242526a262.979368 262.979368 0 0 0-68.634947-31.312842z" p-id="3659"></path></svg>